<?xml version="1.0" encoding="UTF-8" standalone="no"?>
<!DOCTYPE svg PUBLIC "-//W3C//DTD SVG 1.1//EN"
 "http://www.w3.org/Graphics/SVG/1.1/DTD/svg11.dtd">
<!-- Generated by graphviz version 2.43.0 (0)
 -->
<!-- Title: CallGraph Pages: 1 -->
<svg width="507pt" height="2780pt"
 viewBox="0.00 0.00 507.29 2780.00" xmlns="http://www.w3.org/2000/svg" xmlns:xlink="http://www.w3.org/1999/xlink">
<g id="graph0" class="graph" transform="scale(1 1) rotate(0) translate(4 2776)">
<title>CallGraph</title>
<polygon fill="white" stroke="transparent" points="-4,4 -4,-2776 503.29,-2776 503.29,4 -4,4"/>
<!-- 01 -->
<g id="node1" class="node">
<title>01</title>
<ellipse fill="none" stroke="black" cx="92.29" cy="-2754" rx="92.08" ry="18"/>
<text text-anchor="middle" x="92.29" y="-2750.3" font-family="Times,serif" font-size="14.00">NEWTABLE 3 0 0</text>
</g>
<!-- 02 -->
<g id="node2" class="node">
<title>02</title>
<ellipse fill="none" stroke="black" cx="92.29" cy="-2682" rx="72.29" ry="18"/>
<text text-anchor="middle" x="92.29" y="-2678.3" font-family="Times,serif" font-size="14.00">EXTRAARG 0</text>
</g>
<!-- 01&#45;&gt;02 -->
<g id="edge1" class="edge">
<title>01&#45;&gt;02</title>
<path fill="none" stroke="black" d="M92.29,-2735.7C92.29,-2727.98 92.29,-2718.71 92.29,-2710.11"/>
<polygon fill="black" stroke="black" points="95.79,-2710.1 92.29,-2700.1 88.79,-2710.1 95.79,-2710.1"/>
</g>
<!-- 03 -->
<g id="node3" class="node">
<title>03</title>
<ellipse fill="none" stroke="black" cx="92.29" cy="-2610" rx="77.19" ry="18"/>
<text text-anchor="middle" x="92.29" y="-2606.3" font-family="Times,serif" font-size="14.00">LOADFALSE 4</text>
</g>
<!-- 02&#45;&gt;03 -->
<g id="edge2" class="edge">
<title>02&#45;&gt;03</title>
<path fill="none" stroke="black" d="M92.29,-2663.7C92.29,-2655.98 92.29,-2646.71 92.29,-2638.11"/>
<polygon fill="black" stroke="black" points="95.79,-2638.1 92.29,-2628.1 88.79,-2638.1 95.79,-2638.1"/>
</g>
<!-- 04 -->
<g id="node4" class="node">
<title>04</title>
<ellipse fill="none" stroke="black" cx="92.29" cy="-2538" rx="57.69" ry="18"/>
<text text-anchor="middle" x="92.29" y="-2534.3" font-family="Times,serif" font-size="14.00">MOVE 5 1</text>
</g>
<!-- 03&#45;&gt;04 -->
<g id="edge3" class="edge">
<title>03&#45;&gt;04</title>
<path fill="none" stroke="black" d="M92.29,-2591.7C92.29,-2583.98 92.29,-2574.71 92.29,-2566.11"/>
<polygon fill="black" stroke="black" points="95.79,-2566.1 92.29,-2556.1 88.79,-2566.1 95.79,-2566.1"/>
</g>
<!-- 05 -->
<g id="node5" class="node">
<title>05</title>
<ellipse fill="none" stroke="black" cx="92.29" cy="-2466" rx="72.29" ry="18"/>
<text text-anchor="middle" x="92.29" y="-2462.3" font-family="Times,serif" font-size="14.00">LOADNIL 6 1</text>
</g>
<!-- 04&#45;&gt;05 -->
<g id="edge4" class="edge">
<title>04&#45;&gt;05</title>
<path fill="none" stroke="black" d="M92.29,-2519.7C92.29,-2511.98 92.29,-2502.71 92.29,-2494.11"/>
<polygon fill="black" stroke="black" points="95.79,-2494.1 92.29,-2484.1 88.79,-2494.1 95.79,-2494.1"/>
</g>
<!-- 06 -->
<g id="node6" class="node">
<title>06</title>
<ellipse fill="none" stroke="black" cx="92.29" cy="-2394" rx="90.18" ry="18"/>
<text text-anchor="middle" x="92.29" y="-2390.3" font-family="Times,serif" font-size="14.00">GETTABUP 8 0 0</text>
</g>
<!-- 05&#45;&gt;06 -->
<g id="edge5" class="edge">
<title>05&#45;&gt;06</title>
<path fill="none" stroke="black" d="M92.29,-2447.7C92.29,-2439.98 92.29,-2430.71 92.29,-2422.11"/>
<polygon fill="black" stroke="black" points="95.79,-2422.1 92.29,-2412.1 88.79,-2422.1 95.79,-2422.1"/>
</g>
<!-- 07 -->
<g id="node7" class="node">
<title>07</title>
<ellipse fill="none" stroke="black" cx="92.29" cy="-2322" rx="57.69" ry="18"/>
<text text-anchor="middle" x="92.29" y="-2318.3" font-family="Times,serif" font-size="14.00">MOVE 9 0</text>
</g>
<!-- 06&#45;&gt;07 -->
<g id="edge6" class="edge">
<title>06&#45;&gt;07</title>
<path fill="none" stroke="black" d="M92.29,-2375.7C92.29,-2367.98 92.29,-2358.71 92.29,-2350.11"/>
<polygon fill="black" stroke="black" points="95.79,-2350.1 92.29,-2340.1 88.79,-2350.1 95.79,-2350.1"/>
</g>
<!-- 08 -->
<g id="node8" class="node">
<title>08</title>
<ellipse fill="none" stroke="black" cx="92.29" cy="-2250" rx="61.99" ry="18"/>
<text text-anchor="middle" x="92.29" y="-2246.3" font-family="Times,serif" font-size="14.00">CALL 8 2 5</text>
</g>
<!-- 07&#45;&gt;08 -->
<g id="edge7" class="edge">
<title>07&#45;&gt;08</title>
<path fill="none" stroke="black" d="M92.29,-2303.7C92.29,-2295.98 92.29,-2286.71 92.29,-2278.11"/>
<polygon fill="black" stroke="black" points="95.79,-2278.1 92.29,-2268.1 88.79,-2278.1 95.79,-2278.1"/>
</g>
<!-- 09 -->
<g id="node9" class="node">
<title>09</title>
<ellipse fill="none" stroke="black" cx="92.29" cy="-2178" rx="87.18" ry="18"/>
<text text-anchor="middle" x="92.29" y="-2174.3" font-family="Times,serif" font-size="14.00">TFORPREP 8 38</text>
</g>
<!-- 08&#45;&gt;09 -->
<g id="edge8" class="edge">
<title>08&#45;&gt;09</title>
<path fill="none" stroke="black" d="M92.29,-2231.7C92.29,-2223.98 92.29,-2214.71 92.29,-2206.11"/>
<polygon fill="black" stroke="black" points="95.79,-2206.1 92.29,-2196.1 88.79,-2206.1 95.79,-2206.1"/>
</g>
<!-- 10 -->
<g id="node10" class="node">
<title>10</title>
<ellipse fill="none" stroke="black" cx="92.29" cy="-2106" rx="74.19" ry="18"/>
<text text-anchor="middle" x="92.29" y="-2102.3" font-family="Times,serif" font-size="14.00">SELF 13 12 1</text>
</g>
<!-- 09&#45;&gt;10 -->
<g id="edge9" class="edge">
<title>09&#45;&gt;10</title>
<path fill="none" stroke="black" d="M92.29,-2159.7C92.29,-2151.98 92.29,-2142.71 92.29,-2134.11"/>
<polygon fill="black" stroke="black" points="95.79,-2134.1 92.29,-2124.1 88.79,-2134.1 95.79,-2134.1"/>
</g>
<!-- 11 -->
<g id="node11" class="node">
<title>11</title>
<ellipse fill="none" stroke="black" cx="211.29" cy="-2034" rx="67.69" ry="18"/>
<text text-anchor="middle" x="211.29" y="-2030.3" font-family="Times,serif" font-size="14.00">CALL 13 2 2</text>
</g>
<!-- 10&#45;&gt;11 -->
<g id="edge10" class="edge">
<title>10&#45;&gt;11</title>
<path fill="none" stroke="black" d="M119.29,-2089.12C136,-2079.29 157.62,-2066.57 175.71,-2055.93"/>
<polygon fill="black" stroke="black" points="177.96,-2058.67 184.81,-2050.58 174.41,-2052.63 177.96,-2058.67"/>
</g>
<!-- 12 -->
<g id="node12" class="node">
<title>12</title>
<ellipse fill="none" stroke="black" cx="237.29" cy="-1962" rx="74.19" ry="18"/>
<text text-anchor="middle" x="237.29" y="-1958.3" font-family="Times,serif" font-size="14.00">SELF 14 12 2</text>
</g>
<!-- 11&#45;&gt;12 -->
<g id="edge11" class="edge">
<title>11&#45;&gt;12</title>
<path fill="none" stroke="black" d="M217.59,-2016.05C220.51,-2008.18 224.06,-1998.62 227.34,-1989.79"/>
<polygon fill="black" stroke="black" points="230.67,-1990.87 230.88,-1980.28 224.11,-1988.43 230.67,-1990.87"/>
</g>
<!-- 13 -->
<g id="node13" class="node">
<title>13</title>
<ellipse fill="none" stroke="black" cx="286.29" cy="-1890" rx="67.69" ry="18"/>
<text text-anchor="middle" x="286.29" y="-1886.3" font-family="Times,serif" font-size="14.00">CALL 14 2 2</text>
</g>
<!-- 12&#45;&gt;13 -->
<g id="edge12" class="edge">
<title>12&#45;&gt;13</title>
<path fill="none" stroke="black" d="M249.15,-1944.05C254.99,-1935.71 262.15,-1925.49 268.62,-1916.25"/>
<polygon fill="black" stroke="black" points="271.67,-1917.99 274.54,-1907.79 265.94,-1913.97 271.67,-1917.99"/>
</g>
<!-- 14 -->
<g id="node14" class="node">
<title>14</title>
<ellipse fill="none" stroke="black" cx="310.29" cy="-1818" rx="63.89" ry="18"/>
<text text-anchor="middle" x="310.29" y="-1814.3" font-family="Times,serif" font-size="14.00">MOVE 6 13</text>
</g>
<!-- 13&#45;&gt;14 -->
<g id="edge13" class="edge">
<title>13&#45;&gt;14</title>
<path fill="none" stroke="black" d="M292.1,-1872.05C294.8,-1864.18 298.08,-1854.62 301.11,-1845.79"/>
<polygon fill="black" stroke="black" points="304.44,-1846.87 304.37,-1836.28 297.81,-1844.6 304.44,-1846.87"/>
</g>
<!-- 15 -->
<g id="node15" class="node">
<title>15</title>
<ellipse fill="none" stroke="black" cx="310.29" cy="-1746" rx="53.89" ry="18"/>
<text text-anchor="middle" x="310.29" y="-1742.3" font-family="Times,serif" font-size="14.00">LT 5 14 0</text>
</g>
<!-- 14&#45;&gt;15 -->
<g id="edge14" class="edge">
<title>14&#45;&gt;15</title>
<path fill="none" stroke="black" d="M310.29,-1799.7C310.29,-1791.98 310.29,-1782.71 310.29,-1774.11"/>
<polygon fill="black" stroke="black" points="313.79,-1774.1 310.29,-1764.1 306.79,-1774.1 313.79,-1774.1"/>
</g>
<!-- 16 -->
<g id="node16" class="node">
<title>16</title>
<ellipse fill="none" stroke="black" cx="366.29" cy="-1674" rx="38.19" ry="18"/>
<text text-anchor="middle" x="366.29" y="-1670.3" font-family="Times,serif" font-size="14.00">JMP 2</text>
</g>
<!-- 15&#45;&gt;16 -->
<g id="edge15" class="edge">
<title>15&#45;&gt;16</title>
<path fill="none" stroke="black" d="M323.56,-1728.41C330.57,-1719.66 339.29,-1708.75 347.03,-1699.08"/>
<polygon fill="black" stroke="black" points="349.99,-1700.98 353.5,-1690.99 344.52,-1696.61 349.99,-1700.98"/>
</g>
<!-- 17 -->
<g id="node17" class="node">
<title>17</title>
<ellipse fill="none" stroke="black" cx="250.29" cy="-1674" rx="57.69" ry="18"/>
<text text-anchor="middle" x="250.29" y="-1670.3" font-family="Times,serif" font-size="14.00">MOVE 7 5</text>
</g>
<!-- 15&#45;&gt;17 -->
<g id="edge16" class="edge">
<title>15&#45;&gt;17</title>
<path fill="none" stroke="black" d="M296.07,-1728.41C288.6,-1719.69 279.3,-1708.85 271.04,-1699.21"/>
<polygon fill="black" stroke="black" points="273.57,-1696.78 264.41,-1691.47 268.26,-1701.34 273.57,-1696.78"/>
</g>
<!-- 19 -->
<g id="node19" class="node">
<title>19</title>
<ellipse fill="none" stroke="black" cx="369.29" cy="-1602" rx="63.89" ry="18"/>
<text text-anchor="middle" x="369.29" y="-1598.3" font-family="Times,serif" font-size="14.00">MOVE 7 14</text>
</g>
<!-- 16&#45;&gt;19 -->
<g id="edge17" class="edge">
<title>16&#45;&gt;19</title>
<path fill="none" stroke="black" d="M367.03,-1655.7C367.36,-1647.98 367.76,-1638.71 368.13,-1630.11"/>
<polygon fill="black" stroke="black" points="371.63,-1630.25 368.56,-1620.1 364.63,-1629.95 371.63,-1630.25"/>
</g>
<!-- 18 -->
<g id="node18" class="node">
<title>18</title>
<ellipse fill="none" stroke="black" cx="249.29" cy="-1602" rx="38.19" ry="18"/>
<text text-anchor="middle" x="249.29" y="-1598.3" font-family="Times,serif" font-size="14.00">JMP 1</text>
</g>
<!-- 17&#45;&gt;18 -->
<g id="edge18" class="edge">
<title>17&#45;&gt;18</title>
<path fill="none" stroke="black" d="M250.04,-1655.7C249.93,-1647.98 249.8,-1638.71 249.68,-1630.11"/>
<polygon fill="black" stroke="black" points="253.18,-1630.05 249.54,-1620.1 246.18,-1630.15 253.18,-1630.05"/>
</g>
<!-- 20 -->
<g id="node20" class="node">
<title>20</title>
<ellipse fill="none" stroke="black" cx="315.29" cy="-1530" rx="57.69" ry="18"/>
<text text-anchor="middle" x="315.29" y="-1526.3" font-family="Times,serif" font-size="14.00">SUB 5 5 7</text>
</g>
<!-- 18&#45;&gt;20 -->
<g id="edge19" class="edge">
<title>18&#45;&gt;20</title>
<path fill="none" stroke="black" d="M264.27,-1585.12C272.63,-1576.24 283.23,-1565.01 292.59,-1555.08"/>
<polygon fill="black" stroke="black" points="295.14,-1557.47 299.45,-1547.8 290.05,-1552.67 295.14,-1557.47"/>
</g>
<!-- 19&#45;&gt;20 -->
<g id="edge20" class="edge">
<title>19&#45;&gt;20</title>
<path fill="none" stroke="black" d="M356.22,-1584.05C349.72,-1575.63 341.74,-1565.28 334.55,-1555.97"/>
<polygon fill="black" stroke="black" points="337.12,-1553.57 328.24,-1547.79 331.58,-1557.84 337.12,-1553.57"/>
</g>
<!-- 21 -->
<g id="node21" class="node">
<title>21</title>
<ellipse fill="none" stroke="black" cx="315.29" cy="-1458" rx="73.39" ry="18"/>
<text text-anchor="middle" x="315.29" y="-1454.3" font-family="Times,serif" font-size="14.00">MMBIN 5 7 7</text>
</g>
<!-- 20&#45;&gt;21 -->
<g id="edge21" class="edge">
<title>20&#45;&gt;21</title>
<path fill="none" stroke="black" d="M315.29,-1511.7C315.29,-1503.98 315.29,-1494.71 315.29,-1486.11"/>
<polygon fill="black" stroke="black" points="318.79,-1486.1 315.29,-1476.1 311.79,-1486.1 318.79,-1486.1"/>
</g>
<!-- 22 -->
<g id="node22" class="node">
<title>22</title>
<ellipse fill="none" stroke="black" cx="315.29" cy="-1386" rx="53.09" ry="18"/>
<text text-anchor="middle" x="315.29" y="-1382.3" font-family="Times,serif" font-size="14.00">TEST 4 0</text>
</g>
<!-- 21&#45;&gt;22 -->
<g id="edge22" class="edge">
<title>21&#45;&gt;22</title>
<path fill="none" stroke="black" d="M315.29,-1439.7C315.29,-1431.98 315.29,-1422.71 315.29,-1414.11"/>
<polygon fill="black" stroke="black" points="318.79,-1414.1 315.29,-1404.1 311.79,-1414.1 318.79,-1414.1"/>
</g>
<!-- 23 -->
<g id="node23" class="node">
<title>23</title>
<ellipse fill="none" stroke="black" cx="225.29" cy="-1242" rx="38.19" ry="18"/>
<text text-anchor="middle" x="225.29" y="-1238.3" font-family="Times,serif" font-size="14.00">JMP 7</text>
</g>
<!-- 22&#45;&gt;23 -->
<g id="edge23" class="edge">
<title>22&#45;&gt;23</title>
<path fill="none" stroke="black" d="M290.59,-1369.85C277.19,-1360.47 261.36,-1347.31 251.29,-1332 238.96,-1313.25 232.35,-1288.53 228.89,-1269.9"/>
<polygon fill="black" stroke="black" points="232.33,-1269.27 227.23,-1259.99 225.43,-1270.43 232.33,-1269.27"/>
</g>
<!-- 24 -->
<g id="node24" class="node">
<title>24</title>
<ellipse fill="none" stroke="black" cx="346.29" cy="-1314" rx="86.38" ry="18"/>
<text text-anchor="middle" x="346.29" y="-1310.3" font-family="Times,serif" font-size="14.00">GETUPVAL 15 1</text>
</g>
<!-- 22&#45;&gt;24 -->
<g id="edge24" class="edge">
<title>22&#45;&gt;24</title>
<path fill="none" stroke="black" d="M322.8,-1368.05C326.32,-1360.09 330.61,-1350.41 334.55,-1341.51"/>
<polygon fill="black" stroke="black" points="337.79,-1342.84 338.64,-1332.28 331.39,-1340 337.79,-1342.84"/>
</g>
<!-- 31 -->
<g id="node31" class="node">
<title>31</title>
<ellipse fill="none" stroke="black" cx="304.29" cy="-810" rx="54.69" ry="18"/>
<text text-anchor="middle" x="304.29" y="-806.3" font-family="Times,serif" font-size="14.00">EQI 5 0 0</text>
</g>
<!-- 23&#45;&gt;31 -->
<g id="edge25" class="edge">
<title>23&#45;&gt;31</title>
<path fill="none" stroke="black" d="M224.9,-1223.95C224.31,-1197.29 223.29,-1144.12 223.29,-1099 223.29,-1099 223.29,-1099 223.29,-953 223.29,-912.36 223.41,-898.87 244.29,-864 251.52,-851.93 262.41,-841.12 272.93,-832.46"/>
<polygon fill="black" stroke="black" points="275.13,-835.19 280.85,-826.27 270.81,-829.68 275.13,-835.19"/>
</g>
<!-- 25 -->
<g id="node25" class="node">
<title>25</title>
<ellipse fill="none" stroke="black" cx="348.29" cy="-1242" rx="63.89" ry="18"/>
<text text-anchor="middle" x="348.29" y="-1238.3" font-family="Times,serif" font-size="14.00">MOVE 16 3</text>
</g>
<!-- 24&#45;&gt;25 -->
<g id="edge26" class="edge">
<title>24&#45;&gt;25</title>
<path fill="none" stroke="black" d="M346.79,-1295.7C347.01,-1287.98 347.27,-1278.71 347.52,-1270.11"/>
<polygon fill="black" stroke="black" points="351.02,-1270.2 347.8,-1260.1 344.02,-1270 351.02,-1270.2"/>
</g>
<!-- 26 -->
<g id="node26" class="node">
<title>26</title>
<ellipse fill="none" stroke="black" cx="350.29" cy="-1170" rx="98.58" ry="18"/>
<text text-anchor="middle" x="350.29" y="-1166.3" font-family="Times,serif" font-size="14.00">GETFIELD 17 12 3</text>
</g>
<!-- 25&#45;&gt;26 -->
<g id="edge27" class="edge">
<title>25&#45;&gt;26</title>
<path fill="none" stroke="black" d="M348.79,-1223.7C349.01,-1215.98 349.27,-1206.71 349.52,-1198.11"/>
<polygon fill="black" stroke="black" points="353.02,-1198.2 349.8,-1188.1 346.02,-1198 353.02,-1198.2"/>
</g>
<!-- 27 -->
<g id="node27" class="node">
<title>27</title>
<ellipse fill="none" stroke="black" cx="335.29" cy="-1098" rx="63.89" ry="18"/>
<text text-anchor="middle" x="335.29" y="-1094.3" font-family="Times,serif" font-size="14.00">MOVE 18 6</text>
</g>
<!-- 26&#45;&gt;27 -->
<g id="edge28" class="edge">
<title>26&#45;&gt;27</title>
<path fill="none" stroke="black" d="M346.58,-1151.7C344.93,-1143.98 342.94,-1134.71 341.1,-1126.11"/>
<polygon fill="black" stroke="black" points="344.47,-1125.15 338.96,-1116.1 337.63,-1126.62 344.47,-1125.15"/>
</g>
<!-- 28 -->
<g id="node28" class="node">
<title>28</title>
<ellipse fill="none" stroke="black" cx="333.29" cy="-1026" rx="63.89" ry="18"/>
<text text-anchor="middle" x="333.29" y="-1022.3" font-family="Times,serif" font-size="14.00">MOVE 19 7</text>
</g>
<!-- 27&#45;&gt;28 -->
<g id="edge29" class="edge">
<title>27&#45;&gt;28</title>
<path fill="none" stroke="black" d="M334.8,-1079.7C334.58,-1071.98 334.31,-1062.71 334.07,-1054.11"/>
<polygon fill="black" stroke="black" points="337.56,-1054 333.78,-1044.1 330.57,-1054.2 337.56,-1054"/>
</g>
<!-- 29 -->
<g id="node29" class="node">
<title>29</title>
<ellipse fill="none" stroke="black" cx="325.29" cy="-954" rx="67.69" ry="18"/>
<text text-anchor="middle" x="325.29" y="-950.3" font-family="Times,serif" font-size="14.00">CALL 17 3 0</text>
</g>
<!-- 28&#45;&gt;29 -->
<g id="edge30" class="edge">
<title>28&#45;&gt;29</title>
<path fill="none" stroke="black" d="M331.31,-1007.7C330.43,-999.98 329.37,-990.71 328.39,-982.11"/>
<polygon fill="black" stroke="black" points="331.86,-981.64 327.25,-972.1 324.9,-982.44 331.86,-981.64"/>
</g>
<!-- 30 -->
<g id="node30" class="node">
<title>30</title>
<ellipse fill="none" stroke="black" cx="321.29" cy="-882" rx="67.69" ry="18"/>
<text text-anchor="middle" x="321.29" y="-878.3" font-family="Times,serif" font-size="14.00">CALL 15 0 1</text>
</g>
<!-- 29&#45;&gt;30 -->
<g id="edge31" class="edge">
<title>29&#45;&gt;30</title>
<path fill="none" stroke="black" d="M324.3,-935.7C323.86,-927.98 323.33,-918.71 322.84,-910.11"/>
<polygon fill="black" stroke="black" points="326.33,-909.89 322.27,-900.1 319.35,-910.29 326.33,-909.89"/>
</g>
<!-- 30&#45;&gt;31 -->
<g id="edge32" class="edge">
<title>30&#45;&gt;31</title>
<path fill="none" stroke="black" d="M317.09,-863.7C315.2,-855.9 312.92,-846.51 310.81,-837.83"/>
<polygon fill="black" stroke="black" points="314.21,-837 308.45,-828.1 307.4,-838.65 314.21,-837"/>
</g>
<!-- 32 -->
<g id="node32" class="node">
<title>32</title>
<ellipse fill="none" stroke="black" cx="370.29" cy="-738" rx="38.19" ry="18"/>
<text text-anchor="middle" x="370.29" y="-734.3" font-family="Times,serif" font-size="14.00">JMP 7</text>
</g>
<!-- 31&#45;&gt;32 -->
<g id="edge33" class="edge">
<title>31&#45;&gt;32</title>
<path fill="none" stroke="black" d="M319.93,-792.41C328.35,-783.48 338.89,-772.31 348.14,-762.5"/>
<polygon fill="black" stroke="black" points="350.9,-764.67 355.22,-754.99 345.81,-759.86 350.9,-764.67"/>
</g>
<!-- 33 -->
<g id="node33" class="node">
<title>33</title>
<ellipse fill="none" stroke="black" cx="260.29" cy="-738" rx="53.09" ry="18"/>
<text text-anchor="middle" x="260.29" y="-734.3" font-family="Times,serif" font-size="14.00">TEST 4 1</text>
</g>
<!-- 31&#45;&gt;33 -->
<g id="edge34" class="edge">
<title>31&#45;&gt;33</title>
<path fill="none" stroke="black" d="M293.64,-792.05C288.45,-783.8 282.1,-773.7 276.34,-764.54"/>
<polygon fill="black" stroke="black" points="279.13,-762.39 270.84,-755.79 273.2,-766.12 279.13,-762.39"/>
</g>
<!-- 40 -->
<g id="node40" class="node">
<title>40</title>
<ellipse fill="none" stroke="black" cx="329.29" cy="-450" rx="53.89" ry="18"/>
<text text-anchor="middle" x="329.29" y="-446.3" font-family="Times,serif" font-size="14.00">LT 7 14 0</text>
</g>
<!-- 32&#45;&gt;40 -->
<g id="edge35" class="edge">
<title>32&#45;&gt;40</title>
<path fill="none" stroke="black" d="M368.56,-719.57C365.55,-689.98 358.94,-628.07 351.29,-576 346.33,-542.24 339.32,-503.57 334.56,-478.3"/>
<polygon fill="black" stroke="black" points="337.97,-477.51 332.66,-468.34 331.09,-478.82 337.97,-477.51"/>
</g>
<!-- 34 -->
<g id="node34" class="node">
<title>34</title>
<ellipse fill="none" stroke="black" cx="136.29" cy="-666" rx="38.19" ry="18"/>
<text text-anchor="middle" x="136.29" y="-662.3" font-family="Times,serif" font-size="14.00">JMP 3</text>
</g>
<!-- 33&#45;&gt;34 -->
<g id="edge36" class="edge">
<title>33&#45;&gt;34</title>
<path fill="none" stroke="black" d="M233.99,-722.15C215.01,-711.44 189.24,-696.89 168.94,-685.43"/>
<polygon fill="black" stroke="black" points="170.46,-682.27 160.04,-680.4 167.02,-688.37 170.46,-682.27"/>
</g>
<!-- 35 -->
<g id="node35" class="node">
<title>35</title>
<ellipse fill="none" stroke="black" cx="265.29" cy="-666" rx="57.69" ry="18"/>
<text text-anchor="middle" x="265.29" y="-662.3" font-family="Times,serif" font-size="14.00">MOVE 5 2</text>
</g>
<!-- 33&#45;&gt;35 -->
<g id="edge37" class="edge">
<title>33&#45;&gt;35</title>
<path fill="none" stroke="black" d="M261.53,-719.7C262.08,-711.98 262.74,-702.71 263.36,-694.11"/>
<polygon fill="black" stroke="black" points="266.85,-694.33 264.07,-684.1 259.87,-693.83 266.85,-694.33"/>
</g>
<!-- 38 -->
<g id="node38" class="node">
<title>38</title>
<ellipse fill="none" stroke="black" cx="125.29" cy="-594" rx="52.79" ry="18"/>
<text text-anchor="middle" x="125.29" y="-590.3" font-family="Times,serif" font-size="14.00">CLOSE 8</text>
</g>
<!-- 34&#45;&gt;38 -->
<g id="edge38" class="edge">
<title>34&#45;&gt;38</title>
<path fill="none" stroke="black" d="M133.57,-647.7C132.36,-639.98 130.9,-630.71 129.55,-622.11"/>
<polygon fill="black" stroke="black" points="132.99,-621.44 127.98,-612.1 126.07,-622.53 132.99,-621.44"/>
</g>
<!-- 36 -->
<g id="node36" class="node">
<title>36</title>
<ellipse fill="none" stroke="black" cx="269.29" cy="-594" rx="73.39" ry="18"/>
<text text-anchor="middle" x="269.29" y="-590.3" font-family="Times,serif" font-size="14.00">LOADTRUE 4</text>
</g>
<!-- 35&#45;&gt;36 -->
<g id="edge39" class="edge">
<title>35&#45;&gt;36</title>
<path fill="none" stroke="black" d="M266.28,-647.7C266.72,-639.98 267.25,-630.71 267.74,-622.11"/>
<polygon fill="black" stroke="black" points="271.24,-622.29 268.31,-612.1 264.25,-621.89 271.24,-622.29"/>
</g>
<!-- 37 -->
<g id="node37" class="node">
<title>37</title>
<ellipse fill="none" stroke="black" cx="287.29" cy="-522" rx="38.19" ry="18"/>
<text text-anchor="middle" x="287.29" y="-518.3" font-family="Times,serif" font-size="14.00">JMP 2</text>
</g>
<!-- 36&#45;&gt;37 -->
<g id="edge40" class="edge">
<title>36&#45;&gt;37</title>
<path fill="none" stroke="black" d="M273.74,-575.7C275.75,-567.9 278.16,-558.51 280.39,-549.83"/>
<polygon fill="black" stroke="black" points="283.79,-550.66 282.89,-540.1 277.01,-548.92 283.79,-550.66"/>
</g>
<!-- 37&#45;&gt;40 -->
<g id="edge41" class="edge">
<title>37&#45;&gt;40</title>
<path fill="none" stroke="black" d="M297.25,-504.41C302.19,-496.16 308.29,-486.01 313.83,-476.78"/>
<polygon fill="black" stroke="black" points="316.97,-478.33 319.12,-467.96 310.97,-474.73 316.97,-478.33"/>
</g>
<!-- 39 -->
<g id="node39" class="node">
<title>39</title>
<ellipse fill="none" stroke="black" cx="119.29" cy="-450" rx="44.39" ry="18"/>
<text text-anchor="middle" x="119.29" y="-446.3" font-family="Times,serif" font-size="14.00">JMP 11</text>
</g>
<!-- 38&#45;&gt;39 -->
<g id="edge42" class="edge">
<title>38&#45;&gt;39</title>
<path fill="none" stroke="black" d="M124.57,-575.87C123.55,-551.67 121.67,-507.21 120.45,-478.39"/>
<polygon fill="black" stroke="black" points="123.94,-478.03 120.02,-468.19 116.94,-478.33 123.94,-478.03"/>
</g>
<!-- 51 -->
<g id="node51" class="node">
<title>51</title>
<ellipse fill="none" stroke="black" cx="123.29" cy="-90" rx="84.49" ry="18"/>
<text text-anchor="middle" x="123.29" y="-86.3" font-family="Times,serif" font-size="14.00">RETURN 3 2 0k</text>
</g>
<!-- 39&#45;&gt;51 -->
<g id="edge43" class="edge">
<title>39&#45;&gt;51</title>
<path fill="none" stroke="black" d="M111.8,-431.89C100.99,-405.58 82.29,-353.37 82.29,-307 82.29,-307 82.29,-307 82.29,-233 82.29,-191.41 98.73,-145.56 110.79,-117.51"/>
<polygon fill="black" stroke="black" points="114.14,-118.59 114.99,-108.03 107.74,-115.75 114.14,-118.59"/>
</g>
<!-- 41 -->
<g id="node41" class="node">
<title>41</title>
<ellipse fill="none" stroke="black" cx="148.29" cy="-378" rx="38.19" ry="18"/>
<text text-anchor="middle" x="148.29" y="-374.3" font-family="Times,serif" font-size="14.00">JMP 6</text>
</g>
<!-- 40&#45;&gt;41 -->
<g id="edge44" class="edge">
<title>40&#45;&gt;41</title>
<path fill="none" stroke="black" d="M295.25,-435.83C264.25,-423.85 218.54,-406.17 186.35,-393.72"/>
<polygon fill="black" stroke="black" points="187.41,-390.38 176.83,-390.03 184.89,-396.91 187.41,-390.38"/>
</g>
<!-- 42 -->
<g id="node42" class="node">
<title>42</title>
<ellipse fill="none" stroke="black" cx="397.29" cy="-378" rx="69.59" ry="18"/>
<text text-anchor="middle" x="397.29" y="-374.3" font-family="Times,serif" font-size="14.00">ADD 13 13 7</text>
</g>
<!-- 40&#45;&gt;42 -->
<g id="edge45" class="edge">
<title>40&#45;&gt;42</title>
<path fill="none" stroke="black" d="M345.06,-432.76C353.69,-423.88 364.55,-412.71 374.12,-402.85"/>
<polygon fill="black" stroke="black" points="376.68,-405.24 381.13,-395.63 371.66,-400.37 376.68,-405.24"/>
</g>
<!-- 48 -->
<g id="node48" class="node">
<title>48</title>
<ellipse fill="none" stroke="black" cx="197.29" cy="-306" rx="79.09" ry="18"/>
<text text-anchor="middle" x="197.29" y="-302.3" font-family="Times,serif" font-size="14.00">TFORCALL 8 2</text>
</g>
<!-- 41&#45;&gt;48 -->
<g id="edge46" class="edge">
<title>41&#45;&gt;48</title>
<path fill="none" stroke="black" d="M159.66,-360.76C165.54,-352.35 172.87,-341.89 179.49,-332.44"/>
<polygon fill="black" stroke="black" points="182.44,-334.32 185.31,-324.12 176.7,-330.31 182.44,-334.32"/>
</g>
<!-- 43 -->
<g id="node43" class="node">
<title>43</title>
<ellipse fill="none" stroke="black" cx="392.29" cy="-306" rx="79.09" ry="18"/>
<text text-anchor="middle" x="392.29" y="-302.3" font-family="Times,serif" font-size="14.00">MMBIN 13 7 6</text>
</g>
<!-- 42&#45;&gt;43 -->
<g id="edge47" class="edge">
<title>42&#45;&gt;43</title>
<path fill="none" stroke="black" d="M396.06,-359.7C395.5,-351.98 394.84,-342.71 394.23,-334.11"/>
<polygon fill="black" stroke="black" points="397.72,-333.83 393.51,-324.1 390.74,-334.33 397.72,-333.83"/>
</g>
<!-- 44 -->
<g id="node44" class="node">
<title>44</title>
<ellipse fill="none" stroke="black" cx="392.29" cy="-234" rx="69.59" ry="18"/>
<text text-anchor="middle" x="392.29" y="-230.3" font-family="Times,serif" font-size="14.00">SUB 14 14 7</text>
</g>
<!-- 43&#45;&gt;44 -->
<g id="edge48" class="edge">
<title>43&#45;&gt;44</title>
<path fill="none" stroke="black" d="M392.29,-287.7C392.29,-279.98 392.29,-270.71 392.29,-262.11"/>
<polygon fill="black" stroke="black" points="395.79,-262.1 392.29,-252.1 388.79,-262.1 395.79,-262.1"/>
</g>
<!-- 45 -->
<g id="node45" class="node">
<title>45</title>
<ellipse fill="none" stroke="black" cx="392.29" cy="-162" rx="79.09" ry="18"/>
<text text-anchor="middle" x="392.29" y="-158.3" font-family="Times,serif" font-size="14.00">MMBIN 14 7 7</text>
</g>
<!-- 44&#45;&gt;45 -->
<g id="edge49" class="edge">
<title>44&#45;&gt;45</title>
<path fill="none" stroke="black" d="M392.29,-215.7C392.29,-207.98 392.29,-198.71 392.29,-190.11"/>
<polygon fill="black" stroke="black" points="395.79,-190.1 392.29,-180.1 388.79,-190.1 395.79,-190.1"/>
</g>
<!-- 46 -->
<g id="node46" class="node">
<title>46</title>
<ellipse fill="none" stroke="black" cx="445.29" cy="-90" rx="47.39" ry="18"/>
<text text-anchor="middle" x="445.29" y="-86.3" font-family="Times,serif" font-size="14.00">JMP &#45;33</text>
</g>
<!-- 45&#45;&gt;46 -->
<g id="edge50" class="edge">
<title>45&#45;&gt;46</title>
<path fill="none" stroke="black" d="M405.12,-144.05C411.5,-135.63 419.34,-125.28 426.39,-115.97"/>
<polygon fill="black" stroke="black" points="429.33,-117.87 432.58,-107.79 423.75,-113.65 429.33,-117.87"/>
</g>
<!-- 46&#45;&gt;14 -->
<g id="edge51" class="edge">
<title>46&#45;&gt;14</title>
<path fill="none" stroke="black" d="M458.7,-107.74C466.08,-117.73 474.83,-130.98 480.29,-144 495.93,-181.3 499.29,-192.55 499.29,-233 499.29,-1675 499.29,-1675 499.29,-1675 499.29,-1742.75 420.69,-1782.18 364.87,-1801.63"/>
<polygon fill="black" stroke="black" points="363.45,-1798.42 355.08,-1804.92 365.68,-1805.05 363.45,-1798.42"/>
</g>
<!-- 47 -->
<g id="node47" class="node">
<title>47</title>
<ellipse fill="none" stroke="black" cx="257.29" cy="-378" rx="52.79" ry="18"/>
<text text-anchor="middle" x="257.29" y="-374.3" font-family="Times,serif" font-size="14.00">CLOSE 0</text>
</g>
<!-- 47&#45;&gt;48 -->
<g id="edge52" class="edge">
<title>47&#45;&gt;48</title>
<path fill="none" stroke="black" d="M243.07,-360.41C235.71,-351.82 226.57,-341.16 218.4,-331.63"/>
<polygon fill="black" stroke="black" points="220.99,-329.27 211.83,-323.96 215.68,-333.83 220.99,-329.27"/>
</g>
<!-- 49 -->
<g id="node49" class="node">
<title>49</title>
<ellipse fill="none" stroke="black" cx="197.29" cy="-234" rx="87.18" ry="18"/>
<text text-anchor="middle" x="197.29" y="-230.3" font-family="Times,serif" font-size="14.00">TFORLOOP 8 40</text>
</g>
<!-- 48&#45;&gt;49 -->
<g id="edge53" class="edge">
<title>48&#45;&gt;49</title>
<path fill="none" stroke="black" d="M197.29,-287.7C197.29,-279.98 197.29,-270.71 197.29,-262.11"/>
<polygon fill="black" stroke="black" points="200.79,-262.1 197.29,-252.1 193.79,-262.1 200.79,-262.1"/>
</g>
<!-- 49&#45;&gt;10 -->
<g id="edge55" class="edge">
<title>49&#45;&gt;10</title>
<path fill="none" stroke="black" d="M159.47,-250.33C114.16,-271.5 44.29,-314.31 44.29,-377 44.29,-1963 44.29,-1963 44.29,-1963 44.29,-2005.37 63.7,-2051.28 77.84,-2079.09"/>
<polygon fill="black" stroke="black" points="74.84,-2080.9 82.58,-2088.14 81.04,-2077.65 74.84,-2080.9"/>
</g>
<!-- 50 -->
<g id="node50" class="node">
<title>50</title>
<ellipse fill="none" stroke="black" cx="180.29" cy="-162" rx="52.79" ry="18"/>
<text text-anchor="middle" x="180.29" y="-158.3" font-family="Times,serif" font-size="14.00">CLOSE 8</text>
</g>
<!-- 49&#45;&gt;50 -->
<g id="edge54" class="edge">
<title>49&#45;&gt;50</title>
<path fill="none" stroke="black" d="M193.09,-215.7C191.2,-207.9 188.92,-198.51 186.81,-189.83"/>
<polygon fill="black" stroke="black" points="190.21,-189 184.45,-180.1 183.4,-190.65 190.21,-189"/>
</g>
<!-- 50&#45;&gt;51 -->
<g id="edge56" class="edge">
<title>50&#45;&gt;51</title>
<path fill="none" stroke="black" d="M166.78,-144.41C159.86,-135.91 151.28,-125.37 143.58,-115.91"/>
<polygon fill="black" stroke="black" points="146.13,-113.5 137.1,-107.96 140.7,-117.92 146.13,-113.5"/>
</g>
<!-- 52 -->
<g id="node52" class="node">
<title>52</title>
<ellipse fill="none" stroke="black" cx="123.29" cy="-18" rx="84.49" ry="18"/>
<text text-anchor="middle" x="123.29" y="-14.3" font-family="Times,serif" font-size="14.00">RETURN 8 1 0k</text>
</g>
<!-- 51&#45;&gt;52 -->
<g id="edge57" class="edge">
<title>51&#45;&gt;52</title>
<path fill="none" stroke="black" d="M123.29,-71.7C123.29,-63.98 123.29,-54.71 123.29,-46.11"/>
<polygon fill="black" stroke="black" points="126.79,-46.1 123.29,-36.1 119.79,-46.1 126.79,-46.1"/>
</g>
</g>
</svg>
