<?xml version="1.0" encoding="UTF-8" standalone="no"?>
<!DOCTYPE svg PUBLIC "-//W3C//DTD SVG 1.1//EN"
 "http://www.w3.org/Graphics/SVG/1.1/DTD/svg11.dtd">
<!-- Generated by graphviz version 2.43.0 (0)
 -->
<!-- Title: %3 Pages: 1 -->
<svg width="541pt" height="2852pt"
 viewBox="0.00 0.00 541.41 2852.00" xmlns="http://www.w3.org/2000/svg" xmlns:xlink="http://www.w3.org/1999/xlink">
<g id="graph0" class="graph" transform="scale(1 1) rotate(0) translate(4 2848)">
<title>%3</title>
<polygon fill="white" stroke="transparent" points="-4,4 -4,-2848 537.41,-2848 537.41,4 -4,4"/>
<!-- _01 -->
<g id="node1" class="node">
<title>_01</title>
<ellipse fill="none" stroke="black" cx="92.29" cy="-2826" rx="92.08" ry="18"/>
<text text-anchor="middle" x="92.29" y="-2822.3" font-family="Times,serif" font-size="14.00">NEWTABLE 3 0 0</text>
</g>
<!-- _02 -->
<g id="node2" class="node">
<title>_02</title>
<ellipse fill="none" stroke="black" cx="92.29" cy="-2754" rx="72.29" ry="18"/>
<text text-anchor="middle" x="92.29" y="-2750.3" font-family="Times,serif" font-size="14.00">EXTRAARG 0</text>
</g>
<!-- _01&#45;&gt;_02 -->
<g id="edge1" class="edge">
<title>_01&#45;&gt;_02</title>
<path fill="none" stroke="black" d="M92.29,-2807.7C92.29,-2799.98 92.29,-2790.71 92.29,-2782.11"/>
<polygon fill="black" stroke="black" points="95.79,-2782.1 92.29,-2772.1 88.79,-2782.1 95.79,-2782.1"/>
</g>
<!-- _03 -->
<g id="node3" class="node">
<title>_03</title>
<ellipse fill="none" stroke="black" cx="92.29" cy="-2682" rx="77.19" ry="18"/>
<text text-anchor="middle" x="92.29" y="-2678.3" font-family="Times,serif" font-size="14.00">LOADFALSE 4</text>
</g>
<!-- _02&#45;&gt;_03 -->
<g id="edge2" class="edge">
<title>_02&#45;&gt;_03</title>
<path fill="none" stroke="black" d="M92.29,-2735.7C92.29,-2727.98 92.29,-2718.71 92.29,-2710.11"/>
<polygon fill="black" stroke="black" points="95.79,-2710.1 92.29,-2700.1 88.79,-2710.1 95.79,-2710.1"/>
</g>
<!-- _04 -->
<g id="node4" class="node">
<title>_04</title>
<ellipse fill="none" stroke="black" cx="92.29" cy="-2610" rx="57.69" ry="18"/>
<text text-anchor="middle" x="92.29" y="-2606.3" font-family="Times,serif" font-size="14.00">MOVE 5 1</text>
</g>
<!-- _03&#45;&gt;_04 -->
<g id="edge3" class="edge">
<title>_03&#45;&gt;_04</title>
<path fill="none" stroke="black" d="M92.29,-2663.7C92.29,-2655.98 92.29,-2646.71 92.29,-2638.11"/>
<polygon fill="black" stroke="black" points="95.79,-2638.1 92.29,-2628.1 88.79,-2638.1 95.79,-2638.1"/>
</g>
<!-- _05 -->
<g id="node5" class="node">
<title>_05</title>
<ellipse fill="none" stroke="black" cx="92.29" cy="-2538" rx="72.29" ry="18"/>
<text text-anchor="middle" x="92.29" y="-2534.3" font-family="Times,serif" font-size="14.00">LOADNIL 6 1</text>
</g>
<!-- _04&#45;&gt;_05 -->
<g id="edge4" class="edge">
<title>_04&#45;&gt;_05</title>
<path fill="none" stroke="black" d="M92.29,-2591.7C92.29,-2583.98 92.29,-2574.71 92.29,-2566.11"/>
<polygon fill="black" stroke="black" points="95.79,-2566.1 92.29,-2556.1 88.79,-2566.1 95.79,-2566.1"/>
</g>
<!-- _06 -->
<g id="node6" class="node">
<title>_06</title>
<ellipse fill="none" stroke="black" cx="92.29" cy="-2466" rx="90.18" ry="18"/>
<text text-anchor="middle" x="92.29" y="-2462.3" font-family="Times,serif" font-size="14.00">GETTABUP 8 0 0</text>
</g>
<!-- _05&#45;&gt;_06 -->
<g id="edge5" class="edge">
<title>_05&#45;&gt;_06</title>
<path fill="none" stroke="black" d="M92.29,-2519.7C92.29,-2511.98 92.29,-2502.71 92.29,-2494.11"/>
<polygon fill="black" stroke="black" points="95.79,-2494.1 92.29,-2484.1 88.79,-2494.1 95.79,-2494.1"/>
</g>
<!-- _07 -->
<g id="node7" class="node">
<title>_07</title>
<ellipse fill="none" stroke="black" cx="92.29" cy="-2394" rx="57.69" ry="18"/>
<text text-anchor="middle" x="92.29" y="-2390.3" font-family="Times,serif" font-size="14.00">MOVE 9 0</text>
</g>
<!-- _06&#45;&gt;_07 -->
<g id="edge6" class="edge">
<title>_06&#45;&gt;_07</title>
<path fill="none" stroke="black" d="M92.29,-2447.7C92.29,-2439.98 92.29,-2430.71 92.29,-2422.11"/>
<polygon fill="black" stroke="black" points="95.79,-2422.1 92.29,-2412.1 88.79,-2422.1 95.79,-2422.1"/>
</g>
<!-- _08 -->
<g id="node8" class="node">
<title>_08</title>
<ellipse fill="none" stroke="black" cx="92.29" cy="-2322" rx="61.99" ry="18"/>
<text text-anchor="middle" x="92.29" y="-2318.3" font-family="Times,serif" font-size="14.00">CALL 8 2 5</text>
</g>
<!-- _07&#45;&gt;_08 -->
<g id="edge7" class="edge">
<title>_07&#45;&gt;_08</title>
<path fill="none" stroke="black" d="M92.29,-2375.7C92.29,-2367.98 92.29,-2358.71 92.29,-2350.11"/>
<polygon fill="black" stroke="black" points="95.79,-2350.1 92.29,-2340.1 88.79,-2350.1 95.79,-2350.1"/>
</g>
<!-- _09 -->
<g id="node9" class="node">
<title>_09</title>
<ellipse fill="none" stroke="black" cx="92.29" cy="-2250" rx="87.18" ry="18"/>
<text text-anchor="middle" x="92.29" y="-2246.3" font-family="Times,serif" font-size="14.00">TFORPREP 8 38</text>
</g>
<!-- _08&#45;&gt;_09 -->
<g id="edge8" class="edge">
<title>_08&#45;&gt;_09</title>
<path fill="none" stroke="black" d="M92.29,-2303.7C92.29,-2295.98 92.29,-2286.71 92.29,-2278.11"/>
<polygon fill="black" stroke="black" points="95.79,-2278.1 92.29,-2268.1 88.79,-2278.1 95.79,-2278.1"/>
</g>
<!-- _48 -->
<g id="node48" class="node">
<title>_48</title>
<ellipse fill="none" stroke="black" cx="171.29" cy="-2178" rx="79.09" ry="18"/>
<text text-anchor="middle" x="171.29" y="-2174.3" font-family="Times,serif" font-size="14.00">TFORCALL 8 2</text>
</g>
<!-- _09&#45;&gt;_48 -->
<g id="edge9" class="edge">
<title>_09&#45;&gt;_48</title>
<path fill="none" stroke="black" d="M111.01,-2232.41C121.07,-2223.5 133.65,-2212.36 144.7,-2202.56"/>
<polygon fill="black" stroke="black" points="147.27,-2204.96 152.43,-2195.71 142.62,-2199.72 147.27,-2204.96"/>
</g>
<!-- _10 -->
<g id="node10" class="node">
<title>_10</title>
<ellipse fill="none" stroke="black" cx="350.29" cy="-2034" rx="74.19" ry="18"/>
<text text-anchor="middle" x="350.29" y="-2030.3" font-family="Times,serif" font-size="14.00">SELF 13 12 1</text>
</g>
<!-- _11 -->
<g id="node11" class="node">
<title>_11</title>
<ellipse fill="none" stroke="black" cx="353.29" cy="-1962" rx="67.69" ry="18"/>
<text text-anchor="middle" x="353.29" y="-1958.3" font-family="Times,serif" font-size="14.00">CALL 13 2 2</text>
</g>
<!-- _10&#45;&gt;_11 -->
<g id="edge12" class="edge">
<title>_10&#45;&gt;_11</title>
<path fill="none" stroke="black" d="M351.03,-2015.7C351.36,-2007.98 351.76,-1998.71 352.13,-1990.11"/>
<polygon fill="black" stroke="black" points="355.63,-1990.25 352.56,-1980.1 348.63,-1989.95 355.63,-1990.25"/>
</g>
<!-- _12 -->
<g id="node12" class="node">
<title>_12</title>
<ellipse fill="none" stroke="black" cx="363.29" cy="-1890" rx="74.19" ry="18"/>
<text text-anchor="middle" x="363.29" y="-1886.3" font-family="Times,serif" font-size="14.00">SELF 14 12 2</text>
</g>
<!-- _11&#45;&gt;_12 -->
<g id="edge13" class="edge">
<title>_11&#45;&gt;_12</title>
<path fill="none" stroke="black" d="M355.76,-1943.7C356.87,-1935.98 358.19,-1926.71 359.42,-1918.11"/>
<polygon fill="black" stroke="black" points="362.9,-1918.5 360.85,-1908.1 355.97,-1917.51 362.9,-1918.5"/>
</g>
<!-- _13 -->
<g id="node13" class="node">
<title>_13</title>
<ellipse fill="none" stroke="black" cx="368.29" cy="-1818" rx="67.69" ry="18"/>
<text text-anchor="middle" x="368.29" y="-1814.3" font-family="Times,serif" font-size="14.00">CALL 14 2 2</text>
</g>
<!-- _12&#45;&gt;_13 -->
<g id="edge14" class="edge">
<title>_12&#45;&gt;_13</title>
<path fill="none" stroke="black" d="M364.53,-1871.7C365.08,-1863.98 365.74,-1854.71 366.36,-1846.11"/>
<polygon fill="black" stroke="black" points="369.85,-1846.33 367.07,-1836.1 362.87,-1845.83 369.85,-1846.33"/>
</g>
<!-- _14 -->
<g id="node14" class="node">
<title>_14</title>
<ellipse fill="none" stroke="black" cx="371.29" cy="-1746" rx="63.89" ry="18"/>
<text text-anchor="middle" x="371.29" y="-1742.3" font-family="Times,serif" font-size="14.00">MOVE 6 13</text>
</g>
<!-- _13&#45;&gt;_14 -->
<g id="edge15" class="edge">
<title>_13&#45;&gt;_14</title>
<path fill="none" stroke="black" d="M369.03,-1799.7C369.36,-1791.98 369.76,-1782.71 370.13,-1774.11"/>
<polygon fill="black" stroke="black" points="373.63,-1774.25 370.56,-1764.1 366.63,-1773.95 373.63,-1774.25"/>
</g>
<!-- _15 -->
<g id="node15" class="node">
<title>_15</title>
<ellipse fill="none" stroke="black" cx="371.29" cy="-1674" rx="53.89" ry="18"/>
<text text-anchor="middle" x="371.29" y="-1670.3" font-family="Times,serif" font-size="14.00">LT 5 14 0</text>
</g>
<!-- _14&#45;&gt;_15 -->
<g id="edge16" class="edge">
<title>_14&#45;&gt;_15</title>
<path fill="none" stroke="black" d="M371.29,-1727.7C371.29,-1719.98 371.29,-1710.71 371.29,-1702.11"/>
<polygon fill="black" stroke="black" points="374.79,-1702.1 371.29,-1692.1 367.79,-1702.1 374.79,-1702.1"/>
</g>
<!-- _16 -->
<g id="node16" class="node">
<title>_16</title>
<ellipse fill="none" stroke="black" cx="309.29" cy="-1602" rx="38.19" ry="18"/>
<text text-anchor="middle" x="309.29" y="-1598.3" font-family="Times,serif" font-size="14.00">JMP 2</text>
</g>
<!-- _15&#45;&gt;_16 -->
<g id="edge17" class="edge">
<title>_15&#45;&gt;_16</title>
<path fill="none" stroke="black" d="M356.6,-1656.41C348.69,-1647.48 338.79,-1636.31 330.1,-1626.5"/>
<polygon fill="black" stroke="black" points="332.7,-1624.15 323.45,-1618.99 327.46,-1628.79 332.7,-1624.15"/>
</g>
<!-- _17 -->
<g id="node17" class="node">
<title>_17</title>
<ellipse fill="none" stroke="black" cx="426.29" cy="-1602" rx="57.69" ry="18"/>
<text text-anchor="middle" x="426.29" y="-1598.3" font-family="Times,serif" font-size="14.00">MOVE 7 5</text>
</g>
<!-- _15&#45;&gt;_17 -->
<g id="edge54" class="edge">
<title>_15&#45;&gt;_17</title>
<path fill="none" stroke="black" d="M384.33,-1656.41C391.01,-1647.91 399.28,-1637.37 406.72,-1627.91"/>
<polygon fill="black" stroke="black" points="409.54,-1629.98 412.97,-1619.96 404.04,-1625.66 409.54,-1629.98"/>
</g>
<!-- _19 -->
<g id="node19" class="node">
<title>_19</title>
<ellipse fill="none" stroke="black" cx="308.29" cy="-1530" rx="63.89" ry="18"/>
<text text-anchor="middle" x="308.29" y="-1526.3" font-family="Times,serif" font-size="14.00">MOVE 7 14</text>
</g>
<!-- _16&#45;&gt;_19 -->
<g id="edge18" class="edge">
<title>_16&#45;&gt;_19</title>
<path fill="none" stroke="black" d="M309.04,-1583.7C308.93,-1575.98 308.8,-1566.71 308.68,-1558.11"/>
<polygon fill="black" stroke="black" points="312.18,-1558.05 308.54,-1548.1 305.18,-1558.15 312.18,-1558.05"/>
</g>
<!-- _18 -->
<g id="node18" class="node">
<title>_18</title>
<ellipse fill="none" stroke="black" cx="428.29" cy="-1530" rx="38.19" ry="18"/>
<text text-anchor="middle" x="428.29" y="-1526.3" font-family="Times,serif" font-size="14.00">JMP 1</text>
</g>
<!-- _17&#45;&gt;_18 -->
<g id="edge55" class="edge">
<title>_17&#45;&gt;_18</title>
<path fill="none" stroke="black" d="M426.79,-1583.7C427.01,-1575.98 427.27,-1566.71 427.52,-1558.11"/>
<polygon fill="black" stroke="black" points="431.02,-1558.2 427.8,-1548.1 424.02,-1558 431.02,-1558.2"/>
</g>
<!-- _20 -->
<g id="node20" class="node">
<title>_20</title>
<ellipse fill="none" stroke="black" cx="408.29" cy="-1458" rx="57.69" ry="18"/>
<text text-anchor="middle" x="408.29" y="-1454.3" font-family="Times,serif" font-size="14.00">SUB 5 5 7</text>
</g>
<!-- _18&#45;&gt;_20 -->
<g id="edge56" class="edge">
<title>_18&#45;&gt;_20</title>
<path fill="none" stroke="black" d="M423.45,-1512.05C421.22,-1504.26 418.53,-1494.82 416.03,-1486.08"/>
<polygon fill="black" stroke="black" points="419.34,-1484.93 413.23,-1476.28 412.61,-1486.85 419.34,-1484.93"/>
</g>
<!-- _19&#45;&gt;_20 -->
<g id="edge19" class="edge">
<title>_19&#45;&gt;_20</title>
<path fill="none" stroke="black" d="M330.98,-1513.12C344.66,-1503.54 362.28,-1491.21 377.24,-1480.74"/>
<polygon fill="black" stroke="black" points="379.5,-1483.42 385.69,-1474.82 375.49,-1477.69 379.5,-1483.42"/>
</g>
<!-- _21 -->
<g id="node21" class="node">
<title>_21</title>
<ellipse fill="none" stroke="black" cx="369.29" cy="-1386" rx="73.39" ry="18"/>
<text text-anchor="middle" x="369.29" y="-1382.3" font-family="Times,serif" font-size="14.00">MMBIN 5 7 7</text>
</g>
<!-- _20&#45;&gt;_21 -->
<g id="edge20" class="edge">
<title>_20&#45;&gt;_21</title>
<path fill="none" stroke="black" d="M398.85,-1440.05C394.37,-1432.01 388.91,-1422.2 383.9,-1413.23"/>
<polygon fill="black" stroke="black" points="386.84,-1411.31 378.92,-1404.28 380.73,-1414.71 386.84,-1411.31"/>
</g>
<!-- _22 -->
<g id="node22" class="node">
<title>_22</title>
<ellipse fill="none" stroke="black" cx="381.29" cy="-1314" rx="53.09" ry="18"/>
<text text-anchor="middle" x="381.29" y="-1310.3" font-family="Times,serif" font-size="14.00">TEST 4 0</text>
</g>
<!-- _20&#45;&gt;_22 -->
<g id="edge53" class="edge">
<title>_20&#45;&gt;_22</title>
<path fill="none" stroke="black" d="M426.44,-1440.76C435.81,-1431.13 446.3,-1418.07 451.29,-1404 456.64,-1388.92 458.41,-1382.33 451.29,-1368 444.4,-1354.14 431.96,-1342.93 419.46,-1334.46"/>
<polygon fill="black" stroke="black" points="421.18,-1331.41 410.86,-1329.03 417.44,-1337.33 421.18,-1331.41"/>
</g>
<!-- _21&#45;&gt;_22 -->
<g id="edge21" class="edge">
<title>_21&#45;&gt;_22</title>
<path fill="none" stroke="black" d="M372.26,-1367.7C373.58,-1359.98 375.17,-1350.71 376.64,-1342.11"/>
<polygon fill="black" stroke="black" points="380.12,-1342.55 378.36,-1332.1 373.22,-1341.37 380.12,-1342.55"/>
</g>
<!-- _23 -->
<g id="node23" class="node">
<title>_23</title>
<ellipse fill="none" stroke="black" cx="276.29" cy="-1170" rx="38.19" ry="18"/>
<text text-anchor="middle" x="276.29" y="-1166.3" font-family="Times,serif" font-size="14.00">JMP 7</text>
</g>
<!-- _22&#45;&gt;_23 -->
<g id="edge22" class="edge">
<title>_22&#45;&gt;_23</title>
<path fill="none" stroke="black" d="M350.77,-1299.08C334.22,-1290.1 314.68,-1276.92 302.29,-1260 289.03,-1241.89 282.5,-1217.11 279.31,-1198.3"/>
<polygon fill="black" stroke="black" points="282.75,-1197.65 277.82,-1188.27 275.83,-1198.68 282.75,-1197.65"/>
</g>
<!-- _24 -->
<g id="node24" class="node">
<title>_24</title>
<ellipse fill="none" stroke="black" cx="397.29" cy="-1242" rx="86.38" ry="18"/>
<text text-anchor="middle" x="397.29" y="-1238.3" font-family="Times,serif" font-size="14.00">GETUPVAL 15 1</text>
</g>
<!-- _22&#45;&gt;_24 -->
<g id="edge45" class="edge">
<title>_22&#45;&gt;_24</title>
<path fill="none" stroke="black" d="M385.25,-1295.7C387.01,-1287.98 389.13,-1278.71 391.09,-1270.11"/>
<polygon fill="black" stroke="black" points="394.57,-1270.63 393.38,-1260.1 387.74,-1269.07 394.57,-1270.63"/>
</g>
<!-- _31 -->
<g id="node31" class="node">
<title>_31</title>
<ellipse fill="none" stroke="black" cx="358.29" cy="-738" rx="54.69" ry="18"/>
<text text-anchor="middle" x="358.29" y="-734.3" font-family="Times,serif" font-size="14.00">EQI 5 0 0</text>
</g>
<!-- _23&#45;&gt;_31 -->
<g id="edge23" class="edge">
<title>_23&#45;&gt;_31</title>
<path fill="none" stroke="black" d="M275.9,-1151.95C275.31,-1125.29 274.29,-1072.12 274.29,-1027 274.29,-1027 274.29,-1027 274.29,-881 274.29,-840.03 276.69,-826.81 298.29,-792 305.71,-780.05 316.64,-769.26 327.14,-760.59"/>
<polygon fill="black" stroke="black" points="329.33,-763.32 335.03,-754.39 325.01,-757.82 329.33,-763.32"/>
</g>
<!-- _25 -->
<g id="node25" class="node">
<title>_25</title>
<ellipse fill="none" stroke="black" cx="399.29" cy="-1170" rx="63.89" ry="18"/>
<text text-anchor="middle" x="399.29" y="-1166.3" font-family="Times,serif" font-size="14.00">MOVE 16 3</text>
</g>
<!-- _24&#45;&gt;_25 -->
<g id="edge46" class="edge">
<title>_24&#45;&gt;_25</title>
<path fill="none" stroke="black" d="M397.79,-1223.7C398.01,-1215.98 398.27,-1206.71 398.52,-1198.11"/>
<polygon fill="black" stroke="black" points="402.02,-1198.2 398.8,-1188.1 395.02,-1198 402.02,-1198.2"/>
</g>
<!-- _26 -->
<g id="node26" class="node">
<title>_26</title>
<ellipse fill="none" stroke="black" cx="401.29" cy="-1098" rx="98.58" ry="18"/>
<text text-anchor="middle" x="401.29" y="-1094.3" font-family="Times,serif" font-size="14.00">GETFIELD 17 12 3</text>
</g>
<!-- _25&#45;&gt;_26 -->
<g id="edge47" class="edge">
<title>_25&#45;&gt;_26</title>
<path fill="none" stroke="black" d="M399.79,-1151.7C400.01,-1143.98 400.27,-1134.71 400.52,-1126.11"/>
<polygon fill="black" stroke="black" points="404.02,-1126.2 400.8,-1116.1 397.02,-1126 404.02,-1126.2"/>
</g>
<!-- _27 -->
<g id="node27" class="node">
<title>_27</title>
<ellipse fill="none" stroke="black" cx="386.29" cy="-1026" rx="63.89" ry="18"/>
<text text-anchor="middle" x="386.29" y="-1022.3" font-family="Times,serif" font-size="14.00">MOVE 18 6</text>
</g>
<!-- _26&#45;&gt;_27 -->
<g id="edge48" class="edge">
<title>_26&#45;&gt;_27</title>
<path fill="none" stroke="black" d="M397.58,-1079.7C395.93,-1071.98 393.94,-1062.71 392.1,-1054.11"/>
<polygon fill="black" stroke="black" points="395.47,-1053.15 389.96,-1044.1 388.63,-1054.62 395.47,-1053.15"/>
</g>
<!-- _28 -->
<g id="node28" class="node">
<title>_28</title>
<ellipse fill="none" stroke="black" cx="385.29" cy="-954" rx="63.89" ry="18"/>
<text text-anchor="middle" x="385.29" y="-950.3" font-family="Times,serif" font-size="14.00">MOVE 19 7</text>
</g>
<!-- _27&#45;&gt;_28 -->
<g id="edge49" class="edge">
<title>_27&#45;&gt;_28</title>
<path fill="none" stroke="black" d="M386.04,-1007.7C385.93,-999.98 385.8,-990.71 385.68,-982.11"/>
<polygon fill="black" stroke="black" points="389.18,-982.05 385.54,-972.1 382.18,-982.15 389.18,-982.05"/>
</g>
<!-- _29 -->
<g id="node29" class="node">
<title>_29</title>
<ellipse fill="none" stroke="black" cx="377.29" cy="-882" rx="67.69" ry="18"/>
<text text-anchor="middle" x="377.29" y="-878.3" font-family="Times,serif" font-size="14.00">CALL 17 3 0</text>
</g>
<!-- _28&#45;&gt;_29 -->
<g id="edge50" class="edge">
<title>_28&#45;&gt;_29</title>
<path fill="none" stroke="black" d="M383.31,-935.7C382.43,-927.98 381.37,-918.71 380.39,-910.11"/>
<polygon fill="black" stroke="black" points="383.86,-909.64 379.25,-900.1 376.9,-910.44 383.86,-909.64"/>
</g>
<!-- _30 -->
<g id="node30" class="node">
<title>_30</title>
<ellipse fill="none" stroke="black" cx="375.29" cy="-810" rx="67.69" ry="18"/>
<text text-anchor="middle" x="375.29" y="-806.3" font-family="Times,serif" font-size="14.00">CALL 15 0 1</text>
</g>
<!-- _29&#45;&gt;_30 -->
<g id="edge51" class="edge">
<title>_29&#45;&gt;_30</title>
<path fill="none" stroke="black" d="M376.8,-863.7C376.58,-855.98 376.31,-846.71 376.07,-838.11"/>
<polygon fill="black" stroke="black" points="379.56,-838 375.78,-828.1 372.57,-838.2 379.56,-838"/>
</g>
<!-- _30&#45;&gt;_31 -->
<g id="edge52" class="edge">
<title>_30&#45;&gt;_31</title>
<path fill="none" stroke="black" d="M371.09,-791.7C369.2,-783.9 366.92,-774.51 364.81,-765.83"/>
<polygon fill="black" stroke="black" points="368.21,-765 362.45,-756.1 361.4,-766.65 368.21,-765"/>
</g>
<!-- _32 -->
<g id="node32" class="node">
<title>_32</title>
<ellipse fill="none" stroke="black" cx="466.29" cy="-666" rx="38.19" ry="18"/>
<text text-anchor="middle" x="466.29" y="-662.3" font-family="Times,serif" font-size="14.00">JMP 7</text>
</g>
<!-- _31&#45;&gt;_32 -->
<g id="edge24" class="edge">
<title>_31&#45;&gt;_32</title>
<path fill="none" stroke="black" d="M381.99,-721.64C397.86,-711.36 418.88,-697.73 435.96,-686.66"/>
<polygon fill="black" stroke="black" points="438,-689.51 444.48,-681.14 434.19,-683.64 438,-689.51"/>
</g>
<!-- _33 -->
<g id="node33" class="node">
<title>_33</title>
<ellipse fill="none" stroke="black" cx="356.29" cy="-666" rx="53.09" ry="18"/>
<text text-anchor="middle" x="356.29" y="-662.3" font-family="Times,serif" font-size="14.00">TEST 4 1</text>
</g>
<!-- _31&#45;&gt;_33 -->
<g id="edge36" class="edge">
<title>_31&#45;&gt;_33</title>
<path fill="none" stroke="black" d="M357.8,-719.7C357.58,-711.98 357.31,-702.71 357.07,-694.11"/>
<polygon fill="black" stroke="black" points="360.56,-694 356.78,-684.1 353.57,-694.2 360.56,-694"/>
</g>
<!-- _40 -->
<g id="node40" class="node">
<title>_40</title>
<ellipse fill="none" stroke="black" cx="382.29" cy="-378" rx="53.89" ry="18"/>
<text text-anchor="middle" x="382.29" y="-374.3" font-family="Times,serif" font-size="14.00">LT 7 14 0</text>
</g>
<!-- _32&#45;&gt;_40 -->
<g id="edge25" class="edge">
<title>_32&#45;&gt;_40</title>
<path fill="none" stroke="black" d="M467.96,-647.79C470.37,-618.02 473.3,-555.18 461.29,-504 453.25,-469.73 447.36,-461.59 428.29,-432 421.72,-421.81 413.31,-411.53 405.48,-402.77"/>
<polygon fill="black" stroke="black" points="407.86,-400.19 398.52,-395.2 402.71,-404.93 407.86,-400.19"/>
</g>
<!-- _34 -->
<g id="node34" class="node">
<title>_34</title>
<ellipse fill="none" stroke="black" cx="243.29" cy="-594" rx="38.19" ry="18"/>
<text text-anchor="middle" x="243.29" y="-590.3" font-family="Times,serif" font-size="14.00">JMP 3</text>
</g>
<!-- _33&#45;&gt;_34 -->
<g id="edge37" class="edge">
<title>_33&#45;&gt;_34</title>
<path fill="none" stroke="black" d="M331.77,-649.81C314.81,-639.31 292.13,-625.25 273.97,-614"/>
<polygon fill="black" stroke="black" points="275.81,-611.03 265.47,-608.74 272.12,-616.98 275.81,-611.03"/>
</g>
<!-- _35 -->
<g id="node35" class="node">
<title>_35</title>
<ellipse fill="none" stroke="black" cx="372.29" cy="-594" rx="57.69" ry="18"/>
<text text-anchor="middle" x="372.29" y="-590.3" font-family="Times,serif" font-size="14.00">MOVE 5 2</text>
</g>
<!-- _33&#45;&gt;_35 -->
<g id="edge41" class="edge">
<title>_33&#45;&gt;_35</title>
<path fill="none" stroke="black" d="M360.25,-647.7C362.01,-639.98 364.13,-630.71 366.09,-622.11"/>
<polygon fill="black" stroke="black" points="369.57,-622.63 368.38,-612.1 362.74,-621.07 369.57,-622.63"/>
</g>
<!-- _38 -->
<g id="node38" class="node">
<title>_38</title>
<ellipse fill="none" stroke="black" cx="235.29" cy="-522" rx="52.79" ry="18"/>
<text text-anchor="middle" x="235.29" y="-518.3" font-family="Times,serif" font-size="14.00">CLOSE 8</text>
</g>
<!-- _34&#45;&gt;_38 -->
<g id="edge38" class="edge">
<title>_34&#45;&gt;_38</title>
<path fill="none" stroke="black" d="M241.31,-575.7C240.43,-567.98 239.37,-558.71 238.39,-550.11"/>
<polygon fill="black" stroke="black" points="241.86,-549.64 237.25,-540.1 234.9,-550.44 241.86,-549.64"/>
</g>
<!-- _36 -->
<g id="node36" class="node">
<title>_36</title>
<ellipse fill="none" stroke="black" cx="379.29" cy="-522" rx="73.39" ry="18"/>
<text text-anchor="middle" x="379.29" y="-518.3" font-family="Times,serif" font-size="14.00">LOADTRUE 4</text>
</g>
<!-- _35&#45;&gt;_36 -->
<g id="edge42" class="edge">
<title>_35&#45;&gt;_36</title>
<path fill="none" stroke="black" d="M374.02,-575.7C374.79,-567.98 375.72,-558.71 376.58,-550.11"/>
<polygon fill="black" stroke="black" points="380.07,-550.4 377.58,-540.1 373.1,-549.71 380.07,-550.4"/>
</g>
<!-- _37 -->
<g id="node37" class="node">
<title>_37</title>
<ellipse fill="none" stroke="black" cx="381.29" cy="-450" rx="38.19" ry="18"/>
<text text-anchor="middle" x="381.29" y="-446.3" font-family="Times,serif" font-size="14.00">JMP 2</text>
</g>
<!-- _36&#45;&gt;_37 -->
<g id="edge43" class="edge">
<title>_36&#45;&gt;_37</title>
<path fill="none" stroke="black" d="M379.79,-503.7C380.01,-495.98 380.27,-486.71 380.52,-478.11"/>
<polygon fill="black" stroke="black" points="384.02,-478.2 380.8,-468.1 377.02,-478 384.02,-478.2"/>
</g>
<!-- _37&#45;&gt;_40 -->
<g id="edge44" class="edge">
<title>_37&#45;&gt;_40</title>
<path fill="none" stroke="black" d="M381.54,-431.7C381.65,-423.98 381.78,-414.71 381.9,-406.11"/>
<polygon fill="black" stroke="black" points="385.4,-406.15 382.05,-396.1 378.4,-406.05 385.4,-406.15"/>
</g>
<!-- _39 -->
<g id="node39" class="node">
<title>_39</title>
<ellipse fill="none" stroke="black" cx="231.29" cy="-450" rx="44.39" ry="18"/>
<text text-anchor="middle" x="231.29" y="-446.3" font-family="Times,serif" font-size="14.00">JMP 11</text>
</g>
<!-- _38&#45;&gt;_39 -->
<g id="edge39" class="edge">
<title>_38&#45;&gt;_39</title>
<path fill="none" stroke="black" d="M234.3,-503.7C233.86,-495.98 233.33,-486.71 232.84,-478.11"/>
<polygon fill="black" stroke="black" points="236.33,-477.89 232.27,-468.1 229.35,-478.29 236.33,-477.89"/>
</g>
<!-- _51 -->
<g id="node51" class="node">
<title>_51</title>
<ellipse fill="none" stroke="black" cx="226.29" cy="-378" rx="84.49" ry="18"/>
<text text-anchor="middle" x="226.29" y="-374.3" font-family="Times,serif" font-size="14.00">RETURN 3 2 0k</text>
</g>
<!-- _39&#45;&gt;_51 -->
<g id="edge40" class="edge">
<title>_39&#45;&gt;_51</title>
<path fill="none" stroke="black" d="M230.06,-431.7C229.5,-423.98 228.84,-414.71 228.23,-406.11"/>
<polygon fill="black" stroke="black" points="231.72,-405.83 227.51,-396.1 224.74,-406.33 231.72,-405.83"/>
</g>
<!-- _41 -->
<g id="node41" class="node">
<title>_41</title>
<ellipse fill="none" stroke="black" cx="185.29" cy="-306" rx="38.19" ry="18"/>
<text text-anchor="middle" x="185.29" y="-302.3" font-family="Times,serif" font-size="14.00">JMP 6</text>
</g>
<!-- _40&#45;&gt;_41 -->
<g id="edge26" class="edge">
<title>_40&#45;&gt;_41</title>
<path fill="none" stroke="black" d="M346.62,-364.32C312.16,-352.08 260.09,-333.58 224.49,-320.93"/>
<polygon fill="black" stroke="black" points="225.51,-317.58 214.91,-317.53 223.17,-324.17 225.51,-317.58"/>
</g>
<!-- _42 -->
<g id="node42" class="node">
<title>_42</title>
<ellipse fill="none" stroke="black" cx="382.29" cy="-306" rx="69.59" ry="18"/>
<text text-anchor="middle" x="382.29" y="-302.3" font-family="Times,serif" font-size="14.00">ADD 13 13 7</text>
</g>
<!-- _40&#45;&gt;_42 -->
<g id="edge28" class="edge">
<title>_40&#45;&gt;_42</title>
<path fill="none" stroke="black" d="M382.29,-359.7C382.29,-351.98 382.29,-342.71 382.29,-334.11"/>
<polygon fill="black" stroke="black" points="385.79,-334.1 382.29,-324.1 378.79,-334.1 385.79,-334.1"/>
</g>
<!-- _41&#45;&gt;_48 -->
<g id="edge27" class="edge">
<title>_41&#45;&gt;_48</title>
<path fill="none" stroke="black" d="M166.18,-321.71C154.92,-331.39 141.35,-345.01 133.29,-360 114.15,-395.63 114.29,-408.55 114.29,-449 114.29,-2035 114.29,-2035 114.29,-2035 114.29,-2075.45 116.94,-2087.01 133.29,-2124 137.62,-2133.79 143.93,-2143.57 150.17,-2152.02"/>
<polygon fill="black" stroke="black" points="147.43,-2154.2 156.31,-2159.97 152.97,-2149.92 147.43,-2154.2"/>
</g>
<!-- _43 -->
<g id="node43" class="node">
<title>_43</title>
<ellipse fill="none" stroke="black" cx="312.29" cy="-234" rx="79.09" ry="18"/>
<text text-anchor="middle" x="312.29" y="-230.3" font-family="Times,serif" font-size="14.00">MMBIN 13 7 6</text>
</g>
<!-- _42&#45;&gt;_43 -->
<g id="edge29" class="edge">
<title>_42&#45;&gt;_43</title>
<path fill="none" stroke="black" d="M365.7,-288.41C356.94,-279.65 346.02,-268.73 336.35,-259.06"/>
<polygon fill="black" stroke="black" points="338.79,-256.55 329.25,-251.96 333.84,-261.5 338.79,-256.55"/>
</g>
<!-- _44 -->
<g id="node44" class="node">
<title>_44</title>
<ellipse fill="none" stroke="black" cx="350.29" cy="-162" rx="69.59" ry="18"/>
<text text-anchor="middle" x="350.29" y="-158.3" font-family="Times,serif" font-size="14.00">SUB 14 14 7</text>
</g>
<!-- _42&#45;&gt;_44 -->
<g id="edge35" class="edge">
<title>_42&#45;&gt;_44</title>
<path fill="none" stroke="black" d="M391.29,-288.09C399.76,-269.79 409.84,-240.03 400.29,-216 395.81,-204.73 387.67,-194.46 379.24,-186.03"/>
<polygon fill="black" stroke="black" points="381.54,-183.39 371.84,-179.11 376.76,-188.5 381.54,-183.39"/>
</g>
<!-- _43&#45;&gt;_44 -->
<g id="edge30" class="edge">
<title>_43&#45;&gt;_44</title>
<path fill="none" stroke="black" d="M321.49,-216.05C325.86,-208.01 331.18,-198.2 336.05,-189.23"/>
<polygon fill="black" stroke="black" points="339.22,-190.73 340.91,-180.28 333.07,-187.39 339.22,-190.73"/>
</g>
<!-- _45 -->
<g id="node45" class="node">
<title>_45</title>
<ellipse fill="none" stroke="black" cx="425.29" cy="-90" rx="79.09" ry="18"/>
<text text-anchor="middle" x="425.29" y="-86.3" font-family="Times,serif" font-size="14.00">MMBIN 14 7 7</text>
</g>
<!-- _44&#45;&gt;_45 -->
<g id="edge31" class="edge">
<title>_44&#45;&gt;_45</title>
<path fill="none" stroke="black" d="M368.07,-144.41C377.62,-135.5 389.55,-124.36 400.05,-114.56"/>
<polygon fill="black" stroke="black" points="402.46,-117.09 407.39,-107.71 397.69,-111.98 402.46,-117.09"/>
</g>
<!-- _46 -->
<g id="node46" class="node">
<title>_46</title>
<ellipse fill="none" stroke="black" cx="425.29" cy="-18" rx="47.39" ry="18"/>
<text text-anchor="middle" x="425.29" y="-14.3" font-family="Times,serif" font-size="14.00">JMP &#45;33</text>
</g>
<!-- _44&#45;&gt;_46 -->
<g id="edge34" class="edge">
<title>_44&#45;&gt;_46</title>
<path fill="none" stroke="black" d="M341.87,-144.1C333.79,-125.29 324.54,-94.57 337.29,-72 346.84,-55.1 364.18,-42.99 380.96,-34.65"/>
<polygon fill="black" stroke="black" points="382.55,-37.77 390.16,-30.4 379.62,-31.41 382.55,-37.77"/>
</g>
<!-- _45&#45;&gt;_46 -->
<g id="edge32" class="edge">
<title>_45&#45;&gt;_46</title>
<path fill="none" stroke="black" d="M425.29,-71.7C425.29,-63.98 425.29,-54.71 425.29,-46.11"/>
<polygon fill="black" stroke="black" points="428.79,-46.1 425.29,-36.1 421.79,-46.1 428.79,-46.1"/>
</g>
<!-- _46&#45;&gt;_14 -->
<g id="edge33" class="edge">
<title>_46&#45;&gt;_14</title>
<path fill="none" stroke="black" d="M458.48,-31.16C477.35,-39.75 499.83,-53.12 513.29,-72 536.78,-104.93 532.29,-120.55 532.29,-161 532.29,-1603 532.29,-1603 532.29,-1603 532.29,-1664.5 465.41,-1705.71 417.86,-1727.24"/>
<polygon fill="black" stroke="black" points="416.39,-1724.06 408.63,-1731.28 419.2,-1730.47 416.39,-1724.06"/>
</g>
<!-- _47 -->
<g id="node47" class="node">
<title>_47</title>
<ellipse fill="none" stroke="black" cx="250.29" cy="-2250" rx="52.79" ry="18"/>
<text text-anchor="middle" x="250.29" y="-2246.3" font-family="Times,serif" font-size="14.00">CLOSE 0</text>
</g>
<!-- _47&#45;&gt;_48 -->
<g id="edge59" class="edge">
<title>_47&#45;&gt;_48</title>
<path fill="none" stroke="black" d="M231.97,-2232.76C221.75,-2223.71 208.84,-2212.27 197.56,-2202.28"/>
<polygon fill="black" stroke="black" points="199.87,-2199.65 190.06,-2195.63 195.23,-2204.88 199.87,-2199.65"/>
</g>
<!-- _49 -->
<g id="node49" class="node">
<title>_49</title>
<ellipse fill="none" stroke="black" cx="229.29" cy="-2106" rx="87.18" ry="18"/>
<text text-anchor="middle" x="229.29" y="-2102.3" font-family="Times,serif" font-size="14.00">TFORLOOP 8 40</text>
</g>
<!-- _48&#45;&gt;_49 -->
<g id="edge10" class="edge">
<title>_48&#45;&gt;_49</title>
<path fill="none" stroke="black" d="M185.33,-2160.05C192.39,-2151.54 201.06,-2141.07 208.84,-2131.68"/>
<polygon fill="black" stroke="black" points="211.7,-2133.72 215.38,-2123.79 206.31,-2129.26 211.7,-2133.72"/>
</g>
<!-- _49&#45;&gt;_10 -->
<g id="edge11" class="edge">
<title>_49&#45;&gt;_10</title>
<path fill="none" stroke="black" d="M257.36,-2088.76C274.12,-2079.07 295.6,-2066.64 313.69,-2056.17"/>
<polygon fill="black" stroke="black" points="315.89,-2058.94 322.8,-2050.91 312.39,-2052.88 315.89,-2058.94"/>
</g>
<!-- _50 -->
<g id="node50" class="node">
<title>_50</title>
<ellipse fill="none" stroke="black" cx="212.29" cy="-1962" rx="52.79" ry="18"/>
<text text-anchor="middle" x="212.29" y="-1958.3" font-family="Times,serif" font-size="14.00">CLOSE 8</text>
</g>
<!-- _49&#45;&gt;_50 -->
<g id="edge57" class="edge">
<title>_49&#45;&gt;_50</title>
<path fill="none" stroke="black" d="M227.24,-2087.87C224.34,-2063.67 219.02,-2019.21 215.57,-1990.39"/>
<polygon fill="black" stroke="black" points="219.01,-1989.7 214.35,-1980.19 212.06,-1990.53 219.01,-1989.7"/>
</g>
<!-- _50&#45;&gt;_51 -->
<g id="edge58" class="edge">
<title>_50&#45;&gt;_51</title>
<path fill="none" stroke="black" d="M200.55,-1944.41C183.61,-1918.79 154.29,-1867.47 154.29,-1819 154.29,-1819 154.29,-1819 154.29,-521 154.29,-480.03 158.66,-467.96 178.29,-432 183.94,-421.66 192,-411.69 199.91,-403.25"/>
<polygon fill="black" stroke="black" points="202.55,-405.56 207.05,-395.96 197.55,-400.66 202.55,-405.56"/>
</g>
<!-- _52 -->
<g id="node52" class="node">
<title>_52</title>
<ellipse fill="none" stroke="black" cx="287.29" cy="-2826" rx="84.49" ry="18"/>
<text text-anchor="middle" x="287.29" y="-2822.3" font-family="Times,serif" font-size="14.00">RETURN 8 1 0k</text>
</g>
</g>
</svg>
